<svg width="16" height="22" viewBox="0 0 16 22" fill="none" xmlns="http://www.w3.org/2000/svg">
<path d="M0.779075 22V0.90909H7.9055C9.55322 0.90909 10.9057 1.19058 11.963 1.75355C13.0203 2.30966 13.803 3.07516 14.311 4.05007C14.8191 5.02498 15.0731 6.13376 15.0731 7.37642C15.0731 8.61908 14.8191 9.721 14.311 10.6822C13.803 11.6433 13.0237 12.3986 11.9733 12.9478C10.9229 13.4902 9.58069 13.7614 7.94669 13.7614H2.17964V11.4545H7.8643C8.99025 11.4545 9.8965 11.2898 10.5831 10.9602C11.2765 10.6307 11.7777 10.1638 12.0866 9.55966C12.4024 8.94863 12.5603 8.22088 12.5603 7.37642C12.5603 6.53196 12.4024 5.79391 12.0866 5.16229C11.7708 4.53066 11.2662 4.04321 10.5728 3.69993C9.87934 3.34979 8.96279 3.17472 7.82311 3.17472H3.33305V22H0.779075ZM10.7066 12.5256L15.897 22H12.9311L7.82311 12.5256H10.7066Z" fill="black"/>
</svg>
